<svg width="191" height="191" viewBox="0 0 191 191" fill="none" xmlns="http://www.w3.org/2000/svg">
<path d="M84.197 179.114L82.8464 178.924L81.1621 190.611L82.5127 190.801L84.197 179.114Z" fill="white"/>
<path d="M63.2702 176.34L61.1522 175.409L57.166 181.247L57.0667 181.203L58.7805 174.367L56.6845 173.445L51.5741 180.343L53.0082 180.973L57.0875 175.164L57.1868 175.207L55.4682 182.055L57.6082 182.996L61.5882 177.143L61.6875 177.186L60.0682 184.077L61.4912 184.703L63.2702 176.34Z" fill="white"/>
<path d="M48.8551 168.852C47.742 168.158 46.4139 168.093 45.3649 168.977L46.3004 169.927C46.8679 169.462 47.6227 169.509 48.215 169.879C49.0933 170.426 49.3148 171.354 48.7584 172.249L44.7041 169.722L44.4916 170.055C43.4872 171.63 43.7309 173.419 45.3649 174.438C46.8048 175.335 48.7552 174.985 49.8176 173.319C50.8478 171.703 50.4891 169.871 48.8551 168.852ZM48.1945 173.111C47.7174 173.703 46.794 173.875 46.0281 173.398C45.2928 172.939 44.98 172.109 45.3759 171.354L48.1945 173.111Z" fill="white"/>
<path d="M39.8155 162.38C38.5002 161.312 36.5944 161.556 35.3759 163.022C34.1805 164.461 34.2201 166.331 35.5261 167.392C36.3937 168.097 37.206 167.984 37.6504 167.882L37.7344 167.95L35.4891 170.652L36.5898 171.546L42.3372 164.629L41.2458 163.742L40.7707 164.314L40.6867 164.246C40.6977 163.838 40.6551 163.062 39.8155 162.38ZM39.1498 163.538C39.9801 164.213 39.937 165.336 39.255 166.157C38.458 167.117 37.3656 167.171 36.6099 166.558C35.8357 165.929 35.7597 164.817 36.5031 163.922C37.2617 163.009 38.3755 162.91 39.1498 163.538Z" fill="white"/>
<path d="M33.5059 156.919L32.5149 155.907L28.8723 159.394L27.6881 158.185L26.7862 159.049L27.9703 160.258L27.3806 160.822C27.0597 161.13 26.7776 161.15 26.4669 160.833L25.7446 160.096L24.8513 160.951L25.5904 161.706C26.4386 162.572 27.4002 162.764 28.3629 161.843L28.9613 161.27L29.734 162.058L30.636 161.195L29.8633 160.406L33.5059 156.919Z" fill="white"/>
<path d="M28.2381 151.227L25.882 148.291L24.8984 149.063L25.6338 149.979L19.5242 154.772L21.145 156.792L22.1381 156.013L21.4027 155.096L26.5192 151.083L27.2546 151.999L28.2381 151.227Z" fill="white"/>
<path d="M21.4676 141.682C20.4402 140.051 18.4804 139.626 16.8817 140.61C15.2829 141.595 14.7972 143.511 15.8246 145.142C16.852 146.773 18.8118 147.198 20.4106 146.214C22.0195 145.223 22.495 143.313 21.4676 141.682ZM20.3198 142.389C20.9005 143.311 20.6184 144.398 19.6448 144.998C18.6917 145.585 17.5659 145.378 16.9788 144.446C16.3917 143.513 16.6943 142.413 17.6474 141.826C18.6108 141.233 19.7327 141.456 20.3198 142.389Z" fill="white"/>
<path d="M16.7728 133.772L15.964 131.947L10.9588 132.876L10.9297 132.81L15.0147 129.804L14.2107 127.989L7.74278 128.978L8.34819 130.345L13.3644 129.41L13.408 129.509L9.31201 132.52L10.0724 134.237L15.0935 133.314L15.1371 133.412L11.0362 136.413L11.6465 137.791L16.7728 133.772Z" fill="white"/>
<path d="M9.65068 111.638C9.29936 109.784 7.9327 108.471 6.00303 108.269L6.28987 109.783C7.3385 110.002 8.07631 110.848 8.27421 111.893C8.58106 113.512 7.54636 114.857 5.8495 115.171C4.17638 115.481 2.70733 114.6 2.40047 112.981C2.19813 111.913 2.60391 110.879 3.4776 110.304L3.19076 108.79C1.49161 109.676 0.672678 111.382 1.024 113.236C1.48873 115.688 3.69712 117.1 6.12967 116.65C8.58596 116.195 10.1176 114.101 9.65068 111.638Z" fill="white"/>
<path d="M8.30056 100.446C8.23151 99.1468 7.51967 98.0363 6.18403 97.6993L5.93898 99.0029C6.65027 99.1931 7.04679 99.8299 7.08353 100.521C7.13801 101.546 6.49898 102.261 5.43868 102.328L5.1872 97.5957L4.78935 97.6164C2.9086 97.7141 1.57155 98.9429 1.6729 100.85C1.76222 102.531 3.17709 103.904 5.16633 103.8C7.0953 103.7 8.40191 102.353 8.30056 100.446ZM4.40123 102.37C3.63726 102.326 2.96218 101.68 2.91467 100.786C2.86907 99.9274 3.37421 99.1959 4.22639 99.0799L4.40123 102.37Z" fill="white"/>
<path d="M8.06606 92.7321L8.14792 91.3259L5.02627 91.1483C3.83305 91.0804 3.12974 90.4904 3.18941 89.4656L3.22548 88.8459L1.80326 88.765L1.7762 89.2297C1.72972 90.0281 2.24877 90.6674 2.76521 90.9359L2.75966 91.0313L1.8316 90.9784L1.75043 92.3727L8.06606 92.7321Z" fill="white"/>
<path d="M9.22269 81.6556L9.39538 80.5708L8.14316 80.3759L7.97235 81.4489C7.90478 81.8734 7.68582 82.0206 7.24456 81.9519L4.11998 81.4657L4.39777 79.7206L3.15748 79.5276L2.87969 81.2727L1.12659 80.9999L0.916365 82.3205L2.66947 82.5933L2.48552 83.7489L3.72582 83.9419L3.89662 82.8689L7.03312 83.3569C8.3569 83.5629 9.03124 82.8583 9.22269 81.6556Z" fill="white"/>
<path d="M3.69184 72.6743C3.82074 72.1771 3.54243 71.7122 3.05126 71.5878C2.57178 71.4662 2.10163 71.7414 1.97273 72.2386C1.84383 72.7358 2.12214 73.2006 2.60161 73.3221C3.09279 73.4466 3.56294 73.1715 3.69184 72.6743ZM10.5872 75.1611L10.9409 73.7967L4.81296 72.2437L4.18346 74.6718L5.3997 74.9801L5.67548 73.9163L10.5872 75.1611Z" fill="white"/>
<path d="M12.7623 67.8547L13.2451 66.5296L8.4746 64.8306L9.05149 63.2472L7.87023 62.8265L7.29334 64.4099L6.52098 64.1348C6.10073 63.9852 5.95765 63.7439 6.10903 63.3284L6.46089 62.3626L5.29099 61.946L4.93095 62.9342C4.51772 64.0684 4.76607 65.0069 6.02684 65.4559L6.81056 65.7351L6.43415 66.7682L7.61541 67.1889L7.99182 66.1558L12.7623 67.8547Z" fill="white"/>
<path d="M9.77107 56.0051C9.99245 55.5409 9.80777 55.0325 9.34913 54.8187C8.90141 54.61 8.38723 54.7926 8.16585 55.2569C7.94447 55.7211 8.12916 56.2295 8.57688 56.4382C9.03551 56.652 9.5497 56.4694 9.77107 56.0051ZM16.0687 59.7325L16.6762 58.4585L10.9542 55.7912L9.87303 58.0585L11.0087 58.5879L11.4824 57.5946L16.0687 59.7325Z" fill="white"/>
<path d="M20.9011 51.1059C21.5853 49.9945 21.631 48.6806 20.7203 47.6575L19.7743 48.5973C20.2531 49.151 20.2173 49.8979 19.8532 50.4893C19.3134 51.3662 18.3781 51.5998 17.4644 51.0639L19.9563 47.016L19.6159 46.8112C18.0072 45.8431 16.202 46.1122 15.1978 47.7436C14.3127 49.1813 14.6979 51.1039 16.3995 52.1279C18.0495 53.1208 19.8968 52.7373 20.9011 51.1059ZM16.5837 50.52C15.978 50.0577 15.7892 49.1476 16.26 48.3828C16.7119 47.6487 17.5463 47.3264 18.3161 47.7059L16.5837 50.52Z" fill="white"/>
<path d="M26.8006 42.6928C27.4845 41.8427 27.3541 41.0843 27.2643 40.6782L27.332 40.5941L27.9178 41.0548L28.7895 39.9712L21.7032 34.3985L20.8164 35.5008L23.5848 37.6779L23.5172 37.762C23.0609 37.7539 22.2503 37.8028 21.5514 38.6716C20.4918 39.9887 20.8571 41.8164 22.331 42.9756C23.8333 44.157 25.741 44.01 26.8006 42.6928ZM25.9041 41.698C25.2878 42.464 24.1702 42.6069 23.2348 41.8713C22.3183 41.1506 22.1568 40.0475 22.788 39.2628C23.3968 38.5061 24.4766 38.3334 25.4593 39.1062C26.3002 39.7675 26.5729 40.8666 25.9041 41.698Z" fill="white"/>
<path d="M37.2028 31.4607L41.2082 28.1395L40.3316 27.106L37.4455 29.4991L35.9948 27.7888L38.3999 25.7946L37.531 24.7703L35.126 26.7645L33.7684 25.164L36.562 22.8476L35.6853 21.8142L31.7725 25.0586L37.2028 31.4607Z" fill="white"/>
<path d="M44.7779 25.4691L46.1208 24.5987L45.9637 21.9887L46.0747 21.9167L48.453 23.0869L49.8161 22.2035L46.3157 20.6473L46.1962 17.0709L44.8736 17.9282L45.0157 20.3195L44.9248 20.3784L42.7736 19.2894L41.4509 20.1467L44.6839 21.6479L44.7779 25.4691Z" fill="white"/>
<path d="M55.1117 22.3427L56.3888 21.7187L54.8058 18.5511L54.9032 18.5036C55.3125 18.7297 56.0726 18.9841 57.0791 18.4924C58.5944 17.7521 59.0674 15.95 58.2277 14.2699C57.3828 12.5791 55.5773 11.9034 54.0512 12.649C53.0771 13.1248 52.8629 13.8819 52.78 14.2818L52.6826 14.3294L52.3456 13.6552L51.0793 14.2739L55.1117 22.3427ZM56.2149 17.4367C55.3382 17.865 54.2922 17.5772 53.736 16.4643C53.26 15.5118 53.4759 14.4079 54.4392 13.9373C55.3375 13.4984 56.3887 13.8503 56.9181 14.9097C57.4369 15.9477 57.1133 16.9978 56.2149 17.4367Z" fill="white"/>
<path d="M66.8243 14.4863C68.0676 14.0601 68.949 13.0757 68.9058 11.7135L67.571 11.8426C67.5837 12.571 67.075 13.1244 66.4134 13.3512C65.4325 13.6874 64.5608 13.2788 64.2014 12.2903L68.7297 10.7379L68.5992 10.3657C67.9823 8.60638 66.417 7.67748 64.592 8.30313C62.9837 8.85449 62.0425 10.5795 62.6951 12.4403C63.3279 14.2447 64.9993 15.1119 66.8243 14.4863ZM63.8727 11.3165C63.7033 10.5786 64.1439 9.758 64.9994 9.46473C65.8206 9.18319 66.6716 9.45997 67.0208 10.2372L63.8727 11.3165Z" fill="white"/>
<path d="M74.2546 12.123L75.6436 11.8105L74.9497 8.79606C74.6845 7.64382 75.0626 6.81202 76.075 6.58422L76.6871 6.44649L76.371 5.07312L75.9119 5.17642C75.1232 5.35389 74.646 6.02436 74.5285 6.58944L74.4343 6.61063L74.228 5.71444L72.8507 6.02435L74.2546 12.123Z" fill="white"/>
<path d="M85.339 10.1471L86.441 10.01L86.2827 8.76651L85.1927 8.9021C84.7615 8.95575 84.5577 8.78861 84.5019 8.35042L84.1071 5.24756L85.8799 5.02703L85.7231 3.79537L83.9503 4.01589L83.7288 2.27498L82.3872 2.44186L82.6088 4.18278L81.4349 4.32881L81.5917 5.56047L82.6817 5.42488L83.078 8.53958C83.2453 9.85415 84.1172 10.2991 85.339 10.1471Z" fill="white"/>
<path d="M104.526 12.5248L105.88 12.683L107.281 0.95949L105.926 0.80127L104.526 12.5248Z" fill="white"/>
<path d="M125.514 14.8023L127.654 15.683L131.497 9.75299L131.597 9.79427L130.05 16.6692L132.167 17.5408L137.109 10.5242L135.66 9.92785L131.723 15.8322L131.623 15.7909L133.175 8.90494L131.013 8.01504L127.176 13.9607L127.075 13.9194L128.527 6.99212L127.089 6.40039L125.514 14.8023Z" fill="white"/>
<path d="M140.106 21.9471C141.236 22.6144 142.565 22.6488 143.592 21.7401L142.634 20.8125C142.078 21.2904 141.322 21.2611 140.721 20.906C139.83 20.3795 139.586 19.4567 140.12 18.5489L144.235 20.9794L144.439 20.6413C145.405 19.0428 145.118 17.2603 143.46 16.2808C141.999 15.4175 140.057 15.8141 139.036 17.5048C138.045 19.1443 138.448 20.9675 140.106 21.9471ZM140.663 17.6738C141.126 17.0711 142.045 16.877 142.822 17.3362C143.568 17.777 143.901 18.5993 143.524 19.3636L140.663 17.6738Z" fill="white"/>
<path d="M149.3 28.2031C150.641 29.24 152.54 28.9508 153.722 27.4559C154.883 25.9891 154.798 24.1202 153.466 23.0907C152.582 22.4069 151.773 22.5387 151.331 22.6516L151.245 22.5855L153.424 19.8306L152.302 18.9629L146.724 26.0146L147.837 26.8749L148.298 26.292L148.383 26.3582C148.382 26.7665 148.444 27.5413 149.3 28.2031ZM149.937 27.0292C149.091 26.3747 149.107 25.2504 149.768 24.4136C150.542 23.4358 151.633 23.3549 152.403 23.9505C153.192 24.5609 153.295 25.6709 152.574 26.5829C151.837 27.5137 150.726 27.6395 149.937 27.0292Z" fill="white"/>
<path d="M155.74 33.5136L156.755 34.5016L160.312 30.9289L161.525 32.1095L162.406 31.2248L161.193 30.0442L161.768 29.4657C162.082 29.151 162.363 29.1235 162.682 29.4333L163.422 30.1534L164.294 29.2772L163.537 28.5404C162.668 27.6947 161.702 27.5249 160.762 28.4692L160.177 29.0561L159.386 28.2858L158.505 29.1705L159.297 29.9408L155.74 33.5136Z" fill="white"/>
<path d="M161.145 39.0788L163.571 41.9583L164.536 41.1636L163.779 40.2649L169.77 35.3289L168.101 33.3481L167.127 34.1504L167.885 35.0491L162.867 39.1828L162.109 38.2841L161.145 39.0788Z" fill="white"/>
<path d="M168.144 48.4602C169.211 50.0668 171.181 50.4448 172.755 49.4229C174.329 48.4011 174.769 46.4741 173.702 44.8675C172.635 43.261 170.666 42.883 169.091 43.9048C167.507 44.9332 167.078 46.8537 168.144 48.4602ZM169.275 47.7266C168.672 46.8186 168.928 45.7245 169.886 45.1023C170.825 44.4931 171.955 44.6732 172.565 45.5912C173.174 46.5092 172.899 47.6163 171.96 48.2255C171.011 48.8413 169.884 48.6446 169.275 47.7266Z" fill="white"/>
<path d="M173.029 56.2565L173.882 58.0628L178.863 57.015L178.894 57.0799L174.883 60.1827L175.731 61.9781L182.173 60.8357L181.534 59.4837L176.542 60.5365L176.496 60.4392L180.518 57.3314L179.716 55.6333L174.719 56.6753L174.673 56.5779L178.7 53.481L178.057 52.1182L173.029 56.2565Z" fill="white"/>
<path d="M180.685 78.2156C181.081 80.0604 182.479 81.341 184.413 81.4964L184.09 79.9902C183.036 79.7965 182.278 78.9672 182.055 77.928C181.709 76.3167 182.711 74.9472 184.4 74.5927C186.065 74.2432 187.555 75.0897 187.901 76.701C188.129 77.7635 187.748 78.8074 186.889 79.4027L187.212 80.9089C188.89 79.9833 189.667 78.2582 189.271 76.4134C188.747 73.9731 186.505 72.6134 184.084 73.1215C181.639 73.6347 180.159 75.7636 180.685 78.2156Z" fill="white"/>
<path d="M182.307 89.3725C182.407 90.6698 183.146 91.7631 184.489 92.0683L184.703 90.7593C183.987 90.586 183.575 89.9588 183.522 89.2685C183.442 88.245 184.064 87.5156 185.122 87.4234L185.488 92.1483L185.886 92.1182C187.763 91.976 189.07 90.7158 188.923 88.8115C188.793 87.1334 187.345 85.7946 185.359 85.945C183.433 86.0909 182.159 87.4683 182.307 89.3725ZM186.158 87.3569C186.923 87.3828 187.614 88.0128 187.683 88.9055C187.749 89.7624 187.262 90.5056 186.413 90.6417L186.158 87.3569Z" fill="white"/>
<path d="M182.728 97.0786L182.68 98.4863L185.805 98.5899C186.999 98.6295 187.717 99.2027 187.682 100.229L187.661 100.849L189.085 100.896L189.101 100.431C189.128 99.6317 188.593 99.0048 188.071 98.7486L188.074 98.6532L189.003 98.684L189.05 97.2883L182.728 97.0786Z" fill="white"/>
<path d="M181.84 108.18L181.694 109.268L182.95 109.434L183.095 108.357C183.152 107.931 183.368 107.778 183.81 107.837L186.946 108.249L186.71 110L187.955 110.163L188.19 108.412L189.95 108.643L190.128 107.318L188.369 107.087L188.524 105.928L187.28 105.764L187.135 106.841L183.988 106.427C182.659 106.252 182.002 106.973 181.84 108.18Z" fill="white"/>
<path d="M187.587 117.027C187.47 117.527 187.76 117.985 188.254 118.098C188.736 118.208 189.199 117.922 189.316 117.422C189.433 116.922 189.143 116.464 188.661 116.354C188.167 116.241 187.704 116.527 187.587 117.027ZM180.633 114.705L180.313 116.077L186.477 117.484L187.047 115.042L185.824 114.763L185.574 115.833L180.633 114.705Z" fill="white"/>
<path d="M178.636 122.06L178.186 123.396L182.996 124.982L182.458 126.579L183.649 126.971L184.187 125.374L184.966 125.631C185.39 125.771 185.538 126.009 185.397 126.428L185.069 127.401L186.248 127.79L186.584 126.794C186.97 125.65 186.699 124.718 185.428 124.299L184.638 124.038L184.989 122.996L183.798 122.604L183.446 123.646L178.636 122.06Z" fill="white"/>
<path d="M181.913 133.836C181.703 134.305 181.9 134.809 182.363 135.012C182.816 135.21 183.326 135.015 183.536 134.546C183.746 134.077 183.549 133.573 183.096 133.375C182.633 133.172 182.123 133.366 181.913 133.836ZM175.527 130.259L174.95 131.547L180.735 134.078L181.761 131.785L180.613 131.283L180.164 132.287L175.527 130.259Z" fill="white"/>
<path d="M170.905 138.997C170.248 140.124 170.234 141.439 171.169 142.44L172.092 141.478C171.6 140.936 171.618 140.189 171.968 139.589C172.486 138.699 173.415 138.444 174.342 138.958L171.949 143.063L172.294 143.26C173.926 144.19 175.724 143.878 176.688 142.223C177.538 140.765 177.107 138.852 175.381 137.869C173.707 136.915 171.87 137.342 170.905 138.997ZM175.235 139.481C175.852 139.928 176.063 140.834 175.611 141.609C175.177 142.354 174.351 142.696 173.572 142.335L175.235 139.481Z" fill="white"/>
<path d="M165.212 147.548C164.549 148.414 164.697 149.169 164.797 149.573L164.731 149.658L164.135 149.212L163.289 150.316L170.509 155.719L171.369 154.596L168.548 152.485L168.614 152.399C169.07 152.397 169.879 152.329 170.557 151.443C171.584 150.102 171.175 148.283 169.673 147.159C168.143 146.014 166.239 146.206 165.212 147.548ZM166.132 148.521C166.73 147.741 167.844 147.571 168.796 148.284C169.73 148.983 169.918 150.082 169.306 150.882C168.716 151.653 167.641 151.851 166.64 151.102C165.783 150.46 165.484 149.368 166.132 148.521Z" fill="white"/>
<path d="M155.084 159.022L151.16 162.437L152.062 163.45L154.889 160.989L156.381 162.665L154.025 164.715L154.918 165.719L157.274 163.668L158.67 165.236L155.933 167.618L156.835 168.63L160.668 165.294L155.084 159.022Z" fill="white"/>
<path d="M147.657 165.193L146.335 166.095L146.556 168.7L146.447 168.775L144.041 167.661L142.699 168.577L146.236 170.05L146.442 173.622L147.744 172.734L147.544 170.346L147.633 170.285L149.81 171.323L151.112 170.435L147.843 169.011L147.657 165.193Z" fill="white"/>
<path d="M137.402 168.562L136.14 169.216L137.8 172.345L137.703 172.395C137.289 172.179 136.523 171.942 135.528 172.458C134.031 173.234 133.602 175.047 134.482 176.706C135.368 178.377 137.19 179.009 138.697 178.228C139.659 177.729 139.855 176.967 139.928 176.565L140.025 176.515L140.378 177.181L141.629 176.533L137.402 168.562ZM136.418 173.493C137.284 173.044 138.337 173.307 138.92 174.406C139.419 175.347 139.23 176.456 138.278 176.949C137.391 177.409 136.331 177.082 135.776 176.036C135.232 175.01 135.531 173.953 136.418 173.493Z" fill="white"/>
<path d="M125.883 176.694C124.651 177.149 123.793 178.154 123.87 179.515L125.201 179.354C125.17 178.626 125.666 178.061 126.321 177.819C127.294 177.459 128.175 177.847 128.559 178.827L124.069 180.486L124.209 180.855C124.868 182.599 126.455 183.491 128.265 182.822C129.859 182.233 130.758 180.486 130.061 178.641C129.384 176.852 127.693 176.025 125.883 176.694ZM128.911 179.793C129.098 180.526 128.677 181.357 127.829 181.67C127.015 181.971 126.158 181.715 125.79 180.946L128.911 179.793Z" fill="white"/>
<path d="M118.512 179.233L117.131 179.579L117.898 182.576C118.191 183.721 117.833 184.562 116.827 184.814L116.218 184.966L116.567 186.331L117.024 186.217C117.808 186.021 118.269 185.339 118.373 184.772L118.466 184.748L118.694 185.639L120.064 185.297L118.512 179.233Z" fill="white"/>
<path d="M107.479 181.471L106.381 181.634L106.569 182.873L107.655 182.712C108.085 182.648 108.293 182.81 108.359 183.247L108.829 186.34L107.062 186.602L107.249 187.83L109.016 187.567L109.279 189.303L110.617 189.104L110.353 187.369L111.523 187.195L111.336 185.967L110.25 186.129L109.778 183.024C109.579 181.714 108.697 181.29 107.479 181.471Z" fill="white"/>
</svg>
