<svg width="155" height="155" viewBox="0 0 155 155" fill="none" xmlns="http://www.w3.org/2000/svg">
<path d="M67.2735 136.577C64.4362 136.083 61.7644 137.263 60.4123 140.097L63.2319 140.587C64.0517 139.342 65.4782 138.914 66.8259 139.148C68.9539 139.519 70.2274 141.44 69.8385 143.674C69.4526 145.891 67.6019 147.286 65.4739 146.916C64.0553 146.669 62.9019 145.737 62.5806 144.329L59.761 143.838C60.079 146.945 62.1921 148.975 65.0294 149.469C68.8244 150.13 71.9366 147.785 72.5694 144.149C73.2053 140.496 71.0684 137.238 67.2735 136.577Z" fill="white"/>
<path d="M46.8093 129.472L44.3024 128.167L42.2388 141.297L45.5921 143.042L55.1924 133.834L52.6376 132.505L50.7558 134.366L46.3647 132.081L46.8093 129.472ZM48.9392 136.18L45.2575 139.824L45.0819 139.733L45.9373 134.618L48.9392 136.18Z" fill="white"/>
<path d="M36.2651 121.206C34.1149 119.183 31.6199 119.208 30.1399 120.782C26.5755 124.571 32.726 127.49 31.1103 129.207C30.7033 129.64 29.9308 129.778 29.0917 128.989C28.2526 128.199 28.2601 127.193 28.9384 126.472L26.9718 124.622C24.8505 126.877 25.8426 129.343 27.3373 130.749C29.3301 132.623 31.7071 132.487 33.0638 131.045C36.5542 127.335 30.2711 124.661 32.1334 122.682C32.6514 122.131 33.4927 122.156 34.4235 123.032C35.3019 123.858 35.5297 125.061 34.691 125.953L36.6445 127.79C38.5315 125.784 38.2841 123.105 36.2651 121.206Z" fill="white"/>
<path d="M28.4358 112.897L24.1535 106.022L22.0298 107.344L24.8941 111.943L22.6481 113.342L20.2596 109.507L18.1358 110.83L20.5244 114.665L18.4617 115.95L15.6925 111.503L13.5535 112.836L17.7406 119.558L28.4358 112.897Z" fill="white"/>
<path d="M17.8949 85.7027C17.4937 82.7781 15.5372 81.2297 13.3972 81.5232C8.24345 82.2302 11.1927 88.3663 8.8566 88.6867C8.26811 88.7675 7.58035 88.3894 7.42379 87.2481C7.26724 86.1068 7.90543 85.3289 8.88625 85.1943L8.51931 82.5194C5.45204 82.9401 4.67418 85.4814 4.95305 87.5144C5.32488 90.225 7.25946 91.6129 9.22109 91.3439C14.2678 90.6516 11.0608 84.6235 13.7536 84.2541C14.5026 84.1514 15.1411 84.6997 15.3147 85.9658C15.4786 87.1606 14.8999 88.2393 13.6872 88.4056L14.0517 91.0628C16.7802 90.6885 18.2716 88.449 17.8949 85.7027Z" fill="white"/>
<path d="M17.339 71.7829L17.6648 69.1389L7.66039 67.9064L8.07195 64.5657L5.57085 64.2576L4.42201 73.5831L6.9231 73.8912L7.33466 70.5504L17.339 71.7829Z" fill="white"/>
<path d="M21.8315 54.6663C23.0583 51.7455 21.8967 49.3052 19.1916 48.169L11.9228 45.1159L10.8842 47.5886L18.1364 50.6348C19.4806 51.1994 20.0203 52.2851 19.4417 53.6625C18.8562 55.0566 17.7101 55.4147 16.3825 54.857L9.11364 51.8038L8.07501 54.2766L15.3604 57.3367C18.0821 58.4799 20.5907 57.6203 21.8315 54.6663Z" fill="white"/>
<path d="M27.276 43.4364L30.4535 39.6409C33.0764 36.5079 32.7314 33.1907 29.7364 30.6833C26.9208 28.3262 23.4152 28.4196 20.7923 31.5526L17.6147 35.3481L19.3814 36.8271L20.0747 35.999L26.2026 41.1293L25.5094 41.9574L27.276 43.4364ZM27.8184 39.0311L21.8698 34.051L22.6555 33.1125C24.1461 31.3321 26.1903 31.3298 27.957 32.8088C29.8064 34.3571 30.0831 36.3259 28.6041 38.0926L27.8184 39.0311Z" fill="white"/>
<path d="M43.0278 27.9566L45.2525 26.491L42.3412 22.0718L42.0335 13.5231L39.4031 15.2561L39.7391 20.445L39.5737 20.5539L34.9538 18.1872L32.3834 19.8805L40.1165 23.5373L43.0278 27.9566Z" fill="white"/>
<path d="M63.8323 18.7019L69.8465 17.6702L69.4325 15.2574L67.7294 15.5496L66.4268 7.95651L68.1299 7.66433L67.716 5.25158L61.7018 6.28334L62.1157 8.6961L63.7834 8.41L65.086 16.0031L63.4184 16.2892L63.8323 18.7019Z" fill="white"/>
<path d="M77.4247 17.0447L80.0961 17.2831L80.976 7.42226L81.1732 7.43986L83.1261 17.5535L87.7158 17.963L88.8357 5.41288L86.1823 5.1761L85.3024 15.0369L85.1231 15.0209L83.0985 4.90093L78.5446 4.49457L77.4247 17.0447Z" fill="white"/>
<path d="M103.846 23.2783L106.165 24.6246L108.397 20.7794L109.954 21.6829C112.04 22.8937 114.421 22.3404 115.641 20.2388C116.87 18.1216 116.211 15.8867 114.047 14.6307L110.171 12.3808L103.846 23.2783ZM109.653 18.6154L111.234 15.8911L112.698 16.7404C113.538 17.2284 113.758 18.105 113.306 18.8834C112.845 19.6774 111.957 19.9527 111.116 19.4648L109.653 18.6154Z" fill="white"/>
<path d="M116.836 31.8819L118.733 33.7772L121.951 30.5551L122.856 31.4582L121.28 36.3213L123.445 38.4837L125.008 33.0225C126.522 33.5688 128.011 33.1988 129.207 32.0017C130.873 30.3333 130.681 27.9024 128.809 26.0325L125.74 22.967L116.836 31.8819ZM123.669 28.8358L125.869 26.6325L127.003 27.7646C127.856 28.6169 127.767 29.4951 127.195 30.0682C126.457 30.8069 125.553 30.7184 124.866 30.0315L123.669 28.8358Z" fill="white"/>
<path d="M129.969 48.815C131.764 52.1417 135.607 53.2383 138.855 51.4862C142.071 49.7513 143.273 45.9528 141.47 42.6102C139.684 39.2993 135.864 38.1698 132.616 39.9219C129.337 41.691 128.166 45.4724 129.969 48.815ZM132.25 47.5843C131.208 45.6516 131.92 43.4469 133.932 42.3615C135.912 41.2932 138.146 41.9082 139.189 43.8409C140.215 45.7419 139.519 47.9783 137.539 49.0466C135.527 50.132 133.276 49.4853 132.25 47.5843Z" fill="white"/>
<path d="M136.324 67.0214C136.815 69.8593 139.242 72.9106 144.099 72.1625L143.026 65.9545L140.791 66.3407L141.358 69.6221C139.903 69.2342 139.106 68.1115 138.846 66.6039C138.46 64.369 139.905 62.5848 142.14 62.1986C144.357 61.8155 146.279 62.9995 146.665 65.2344C146.91 66.6534 146.386 68.0592 145.168 68.8358L145.656 71.656C148.474 70.3105 149.709 67.6309 149.219 64.793C148.563 60.9973 145.304 58.8387 141.668 59.4671C138.014 60.0985 135.686 63.2226 136.324 67.0214Z" fill="white"/>
<path d="M137.568 80.4781L137.246 83.1407L141.767 83.6865L141.614 84.9553L136.815 86.7148L136.448 89.7527L141.71 87.614C142.215 89.1435 143.424 90.0873 145.104 90.29C147.445 90.5727 149.24 88.9219 149.557 86.2949L150.077 81.9882L137.568 80.4781ZM144.18 83.9778L147.271 84.351L147.079 85.9415C146.935 87.1388 146.189 87.6108 145.385 87.5137C144.348 87.3886 143.861 86.6226 143.977 85.6576L144.18 83.9778Z" fill="white"/>
<path d="M134.789 95.8088L131.792 103.334L134.116 104.26L136.121 99.2262L138.579 100.205L136.908 104.403L139.232 105.328L140.904 101.131L143.161 102.03L141.223 106.897L143.564 107.829L146.495 100.471L134.789 95.8088Z" fill="white"/>
<path d="M125.514 113.119C123.756 115.49 124.072 117.965 125.808 119.251C129.987 122.349 132.168 115.9 134.063 117.305C134.54 117.658 134.767 118.41 134.081 119.335C133.395 120.261 132.395 120.37 131.599 119.781L129.991 121.95C132.479 123.794 134.812 122.521 136.034 120.872C137.663 118.674 137.25 116.329 135.66 115.15C131.568 112.117 129.646 118.669 127.462 117.05C126.855 116.6 126.782 115.761 127.543 114.735C128.261 113.766 129.429 113.399 130.412 114.128L132.01 111.974C129.797 110.334 127.165 110.892 125.514 113.119Z" fill="white"/>
<path d="M114.781 124.276C112.475 126.118 112.147 128.591 113.495 130.279C116.741 134.344 120.501 128.668 121.973 130.511C122.343 130.975 122.371 131.759 121.471 132.478C120.571 133.197 119.576 133.047 118.958 132.274L116.848 133.959C118.78 136.378 121.361 135.745 122.965 134.464C125.103 132.757 125.304 130.384 124.068 128.837C120.889 124.857 117.354 130.698 115.658 128.575C115.186 127.984 115.33 127.155 116.328 126.357C117.271 125.604 118.494 125.549 119.258 126.506L121.353 124.832C119.634 122.68 116.947 122.546 114.781 124.276Z" fill="white"/>
<path d="M97.8004 138.474L92.6763 139.934L93.3469 142.288L98.4711 140.828L97.8004 138.474Z" fill="white"/>
</svg>
